<svg xmlns="http://www.w3.org/2000/svg" viewBox="0 0 96 96" role="img" aria-labelledby="title desc">
	<title id="title">Baker James Farm mark</title>
	<desc id="desc">A stylized barn roof, field rows, and rising sun for Baker James Farm.</desc>
	<rect width="96" height="96" rx="20" fill="#f7f3eb"/>
	<circle cx="48" cy="38" r="15" fill="#f7c948"/>
	<path d="M18 52 48 25l30 27v21H18V52Z" fill="#24311f"/>
	<path d="M29 54h38v19H29V54Z" fill="#fffaf0"/>
	<path d="M38 73V59h20v14H38Z" fill="#7c3f22"/>
	<path d="M19 79c12-8 25-12 39-12 7 0 13 1 19 3v9H19Z" fill="#6f8a4a"/>
	<path d="M25 80c8-5 17-8 27-9M43 82c7-4 15-6 24-7M15 67c8-4 16-7 26-9" fill="none" stroke="#f7c948" stroke-width="3" stroke-linecap="round"/>
</svg>
