<svg xmlns="http://www.w3.org/2000/svg" viewBox="0 0 1200 630" role="img" aria-labelledby="title desc">
	<title id="title">Baker James Farm social image</title>
	<desc id="desc">A Baker James Farm brand card with a barn, field rows, and warm countryside colors.</desc>
	<rect width="1200" height="630" fill="#f7f3eb"/>
	<path d="M0 426c118-64 238-96 360-96 147 0 271 49 386 92 142 54 274 101 454 37v171H0V426Z" fill="#6f8a4a"/>
	<path d="M0 492c125-72 251-108 379-108 148 0 270 48 384 91 141 53 273 101 437 46" fill="none" stroke="#f7c948" stroke-width="18" stroke-linecap="round"/>
	<circle cx="742" cy="184" r="74" fill="#f7c948"/>
	<path d="M205 315 376 162l171 153v131H205V315Z" fill="#24311f"/>
	<path d="M273 327h206v119H273V327Z" fill="#fffaf0"/>
	<path d="M331 446v-76h90v76H331Z" fill="#7c3f22"/>
	<text x="610" y="318" fill="#24311f" font-family="Georgia, 'Times New Roman', serif" font-size="78" font-weight="700">Baker James</text>
	<text x="614" y="384" fill="#7c3f22" font-family="Inter, Arial, sans-serif" font-size="34" font-weight="900" letter-spacing="12">FARM</text>
	<text x="614" y="444" fill="#53594e" font-family="Inter, Arial, sans-serif" font-size="28" font-weight="700">Open-space homestead concept in Noblesville</text>
</svg>
